<svg width="162" height="119" viewBox="0 0 162 119" fill="none" xmlns="http://www.w3.org/2000/svg">
<circle cx="138.23" cy="104.329" r="14.6712" fill="#EFEFEF"/>
<circle cx="33.9017" cy="32.6019" r="14.6712" fill="#EFEFEF"/>
<circle cx="9.78082" cy="48.9039" r="9.78082" fill="#EFEFEF"/>
<circle cx="152.138" cy="17.9312" r="9.78082" fill="#EFEFEF"/>
<circle cx="41.568" cy="103.513" r="7.33562" fill="#EFEFEF"/>
<circle cx="91.7722" cy="57.8699" r="57.8699" fill="#EFEFEF"/>
<path d="M74.1667 83.6667H110.333C113.183 83.6667 115.5 81.3494 115.5 78.5V42.3333C115.5 39.4839 113.183 37.1667 110.333 37.1667H105.167V32H100V37.1667H84.5V32H79.3333V37.1667H74.1667C71.3172 37.1667 69 39.4839 69 42.3333V78.5C69 81.3494 71.3172 83.6667 74.1667 83.6667ZM101.826 71.5069L98.1736 75.1598L92.25 69.2362L86.3264 75.1598L82.6736 71.5069L88.5972 65.5833L82.6736 59.6598L86.3264 56.0069L92.25 61.9305L98.1736 56.0069L101.826 59.6598L95.9028 65.5833L101.826 71.5069ZM74.1667 44.9167H110.333V50.0833H74.1667V44.9167Z" fill="#C1C1C1"/>
</svg>
