<svg width="162" height="119" viewBox="0 0 162 119" fill="none" xmlns="http://www.w3.org/2000/svg">
<circle cx="138.23" cy="104.329" r="14.6712" fill="#EFEFEF"/>
<circle cx="33.9017" cy="32.6019" r="14.6712" fill="#EFEFEF"/>
<circle cx="9.78082" cy="48.9039" r="9.78082" fill="#EFEFEF"/>
<circle cx="152.138" cy="17.9312" r="9.78082" fill="#EFEFEF"/>
<circle cx="41.568" cy="103.513" r="7.33562" fill="#EFEFEF"/>
<circle cx="91.7722" cy="57.8699" r="57.8699" fill="#EFEFEF"/>
<path d="M116.541 78.4588L106.766 68.7125C109.92 64.6946 111.631 59.7329 111.625 54.625C111.625 50.076 110.276 45.6292 107.749 41.8469C105.222 38.0646 101.629 35.1166 97.4267 33.3758C93.224 31.635 88.5995 31.1795 84.1379 32.0669C79.6764 32.9544 75.5782 35.1449 72.3616 38.3616C69.1449 41.5782 66.9544 45.6764 66.0669 50.1379C65.1795 54.5995 65.635 59.224 67.3758 63.4267C69.1166 67.6294 72.0646 71.2215 75.8469 73.7488C79.6292 76.2761 84.076 77.625 88.625 77.625C93.7329 77.6314 98.6946 75.9201 102.713 72.7663L112.459 82.5413C112.726 82.8107 113.044 83.0246 113.394 83.1706C113.745 83.3165 114.12 83.3917 114.5 83.3917C114.88 83.3917 115.255 83.3165 115.606 83.1706C115.956 83.0246 116.274 82.8107 116.541 82.5413C116.811 82.274 117.025 81.956 117.171 81.6057C117.317 81.2553 117.392 80.8795 117.392 80.5C117.392 80.1205 117.317 79.7447 117.171 79.3944C117.025 79.044 116.811 78.726 116.541 78.4588ZM71.375 54.625C71.375 51.2133 72.3867 47.8782 74.2822 45.0414C76.1776 42.2047 78.8717 39.9937 82.0237 38.6881C85.1757 37.3825 88.6441 37.0409 91.9903 37.7065C95.3365 38.3721 98.4101 40.015 100.823 42.4274C103.235 44.8399 104.878 47.9135 105.544 51.2597C106.209 54.6059 105.868 58.0743 104.562 61.2263C103.256 64.3783 101.045 67.0724 98.2086 68.9679C95.3719 70.8633 92.0367 71.875 88.625 71.875C84.05 71.875 79.6624 70.0576 76.4274 66.8226C73.1924 63.5876 71.375 59.2 71.375 54.625Z" fill="#C1C1C1"/>
<g clip-path="url(#clip0_627_8678)">
<path d="M88.5007 41.583C85.946 41.583 83.4487 42.3406 81.3245 43.7599C79.2004 45.1792 77.5448 47.1965 76.5672 49.5567C75.5896 51.9169 75.3338 54.514 75.8322 57.0196C76.3306 59.5252 77.5608 61.8267 79.3672 63.6331C81.1736 65.4396 83.4752 66.6698 85.9807 67.1682C88.4863 67.6665 91.0834 67.4108 93.4437 66.4331C95.8039 65.4555 97.8212 63.7999 99.2405 61.6758C100.66 59.5517 101.417 57.0544 101.417 54.4997C101.417 52.8034 101.083 51.1238 100.434 49.5567C99.785 47.9896 98.8335 46.5656 97.6341 45.3662C96.4347 44.1668 95.0108 43.2154 93.4437 42.5662C91.8765 41.9171 90.1969 41.583 88.5007 41.583ZM88.5007 64.833C86.4569 64.833 84.4591 64.227 82.7598 63.0915C81.0605 61.9561 79.736 60.3422 78.9539 58.4541C78.1718 56.5659 77.9672 54.4882 78.3659 52.4837C78.7646 50.4793 79.7487 48.638 81.1939 47.1929C82.639 45.7478 84.4803 44.7636 86.4847 44.3649C88.4892 43.9662 90.5669 44.1708 92.4551 44.9529C94.3432 45.735 95.9571 47.0595 97.0925 48.7588C98.2279 50.4581 98.834 52.4559 98.834 54.4997C98.834 57.2402 97.7453 59.8686 95.8074 61.8064C93.8696 63.7443 91.2412 64.833 88.5007 64.833Z" fill="#C1C1C1"/>
<path d="M92.0001 50.9993C91.88 50.8782 91.7372 50.7821 91.5798 50.7165C91.4224 50.6509 91.2535 50.6172 91.083 50.6172C90.9125 50.6172 90.7437 50.6509 90.5863 50.7165C90.4289 50.7821 90.286 50.8782 90.1659 50.9993L88.4997 52.6784L86.8334 50.9993C86.5902 50.756 86.2603 50.6194 85.9163 50.6194C85.5724 50.6194 85.2425 50.756 84.9993 50.9993C84.756 51.2425 84.6194 51.5724 84.6194 51.9163C84.6194 52.2603 84.756 52.5902 84.9993 52.8334L86.6784 54.4997L84.9993 56.1659C84.8782 56.286 84.7821 56.4289 84.7165 56.5863C84.6509 56.7437 84.6172 56.9125 84.6172 57.083C84.6172 57.2535 84.6509 57.4224 84.7165 57.5798C84.7821 57.7372 84.8782 57.88 84.9993 58.0001C85.1193 58.1212 85.2622 58.2173 85.4196 58.2828C85.577 58.3484 85.7458 58.3822 85.9163 58.3822C86.0869 58.3822 86.2557 58.3484 86.4131 58.2828C86.5705 58.2173 86.7133 58.1212 86.8334 58.0001L88.4997 56.3209L90.1659 58.0001C90.286 58.1212 90.4289 58.2173 90.5863 58.2828C90.7437 58.3484 90.9125 58.3822 91.083 58.3822C91.2535 58.3822 91.4224 58.3484 91.5798 58.2828C91.7372 58.2173 91.88 58.1212 92.0001 58.0001C92.1212 57.88 92.2173 57.7372 92.2828 57.5798C92.3484 57.4224 92.3822 57.2535 92.3822 57.083C92.3822 56.9125 92.3484 56.7437 92.2828 56.5863C92.2173 56.4289 92.1212 56.286 92.0001 56.1659L90.3209 54.4997L92.0001 52.8334C92.1212 52.7133 92.2173 52.5705 92.2828 52.4131C92.3484 52.2557 92.3822 52.0869 92.3822 51.9163C92.3822 51.7458 92.3484 51.577 92.2828 51.4196C92.2173 51.2622 92.1212 51.1193 92.0001 50.9993Z" fill="#C1C1C1"/>
</g>
<defs>
<clipPath id="clip0_627_8678">
<rect width="31" height="31" fill="white" transform="translate(73 39)"/>
</clipPath>
</defs>
</svg>
