<svg width="101" height="73" viewBox="0 0 101 73" fill="none" xmlns="http://www.w3.org/2000/svg">
<circle cx="85.6328" cy="64" r="9" fill="#EFEFEF"/>
<circle cx="21.6328" cy="20" r="9" fill="#EFEFEF"/>
<circle cx="6.83594" cy="30" r="6" fill="#EFEFEF"/>
<circle cx="94.1641" cy="11" r="6" fill="#EFEFEF"/>
<circle cx="26.3359" cy="63.5" r="4.5" fill="#EFEFEF"/>
<circle cx="57.1328" cy="35.5" r="35.5" fill="#EFEFEF"/>
<g clip-path="url(#clip0_847_16760)">
<path d="M56.9994 20.167C53.8678 20.167 50.8066 21.0956 48.2028 22.8354C45.599 24.5752 43.5697 27.048 42.3713 29.9412C41.1729 32.8343 40.8593 36.0179 41.4703 39.0893C42.0812 42.1606 43.5892 44.9818 45.8035 47.1962C48.0178 49.4105 50.8391 50.9185 53.9104 51.5294C56.9818 52.1404 60.1653 51.8268 63.0585 50.6284C65.9517 49.43 68.4245 47.4006 70.1643 44.7969C71.9041 42.1931 72.8327 39.1319 72.8327 36.0003C72.8327 33.9211 72.4231 31.8622 71.6274 29.9412C70.8317 28.0202 69.6655 26.2747 68.1952 24.8045C66.725 23.3342 64.9795 22.1679 63.0585 21.3722C61.1375 20.5765 59.0786 20.167 56.9994 20.167ZM56.9994 48.667C54.4941 48.667 52.0452 47.9241 49.9621 46.5323C47.8791 45.1404 46.2556 43.1622 45.2969 40.8476C44.3382 38.5331 44.0873 35.9863 44.5761 33.5292C45.0648 31.0721 46.2712 28.8151 48.0427 27.0436C49.8141 25.2722 52.0711 24.0658 54.5282 23.577C56.9853 23.0883 59.5321 23.3391 61.8467 24.2979C64.1612 25.2566 66.1395 26.8801 67.5313 28.9631C68.9231 31.0461 69.666 33.4951 69.666 36.0003C69.666 39.3597 68.3315 42.5816 65.956 44.957C63.5806 47.3325 60.3588 48.667 56.9994 48.667Z" fill="#181818"/>
<path d="M61.2749 30.2843L55.2899 38.201L52.7091 34.8601C52.4508 34.5284 52.0713 34.3128 51.6542 34.2608C51.237 34.2089 50.8162 34.3248 50.4845 34.583C50.1527 34.8413 49.9372 35.2207 49.8852 35.6379C49.8332 36.0551 49.9491 36.4759 50.2074 36.8076L54.0549 41.7318C54.204 41.9205 54.3941 42.0727 54.6109 42.177C54.8276 42.2812 55.0652 42.3347 55.3057 42.3335C55.5475 42.3329 55.786 42.2769 56.0028 42.1699C56.2196 42.0628 56.4091 41.9076 56.5566 41.716L63.7924 32.2159C64.0485 31.88 64.1608 31.4561 64.1043 31.0374C64.0479 30.6187 63.8275 30.2396 63.4916 29.9834C63.1556 29.7273 62.7317 29.6151 62.313 29.6715C61.8943 29.7279 61.5152 29.9483 61.2591 30.2843H61.2749Z" fill="#181818"/>
</g>
<defs>
<clipPath id="clip0_847_16760">
<rect width="38" height="38" fill="white" transform="translate(38 17)"/>
</clipPath>
</defs>
</svg>
